<?xml version="1.0" standalone="no"?>
<!DOCTYPE svg PUBLIC "-//W3C//DTD SVG 20010904//EN"
 "http://www.w3.org/TR/2001/REC-SVG-20010904/DTD/svg10.dtd">
<svg version="1.0" xmlns="http://www.w3.org/2000/svg"
 width="700.000000pt" height="700.000000pt" viewBox="0 0 700.000000 700.000000"
 preserveAspectRatio="xMidYMid meet">
<metadata>
Created by potrace 1.11, written by Peter Selinger 2001-2013
</metadata>
<g transform="translate(0.000000,700.000000) scale(0.100000,-0.100000)"
fill="#000000" stroke="none">
<path d="M3278 6996 c-1 -2 -39 -6 -83 -10 -89 -7 -144 -13 -225 -26 -30 -5
-73 -12 -95 -15 -23 -3 -50 -7 -60 -10 -11 -3 -49 -12 -85 -20 -36 -9 -69 -17
-75 -18 -5 -2 -26 -7 -45 -11 -43 -10 -169 -49 -275 -86 -784 -273 -1469 -848
-1882 -1580 -156 -276 -284 -597 -349 -870 -50 -214 -72 -345 -91 -550 -16
-165 -9 -570 12 -714 3 -17 7 -49 9 -71 10 -83 18 -131 26 -165 5 -19 12 -48
14 -65 53 -294 197 -679 372 -992 205 -365 465 -680 810 -978 228 -197 603
-424 907 -549 160 -66 433 -153 571 -182 97 -21 215 -41 276 -49 25 -3 56 -7
69 -10 163 -31 695 -26 908 9 21 4 52 8 68 10 70 9 209 39 332 71 1059 281
1921 1032 2344 2043 50 118 124 333 150 437 20 78 24 91 34 138 13 56 55 298
61 352 4 33 9 76 11 95 8 70 10 517 3 595 -15 159 -21 210 -25 225 -2 8 -7 35
-10 60 -8 60 -40 213 -70 330 -71 280 -207 608 -356 861 -54 93 -167 269 -178
279 -4 3 -33 41 -66 85 -32 44 -69 91 -81 105 -12 14 -41 48 -64 75 -126 149
-341 353 -490 464 -41 31 -77 58 -80 62 -17 19 -218 150 -328 213 -367 211
-820 372 -1182 421 -19 3 -46 7 -60 10 -13 2 -52 7 -86 11 -33 3 -74 8 -90 10
-33 5 -540 14 -546 10z m502 -420 c19 -3 62 -8 95 -11 33 -3 67 -8 75 -10 8
-2 33 -6 55 -10 78 -11 111 -17 185 -35 41 -11 86 -21 100 -23 14 -3 77 -22
140 -42 360 -117 703 -298 976 -517 43 -34 88 -70 99 -78 55 -42 331 -327 397
-410 393 -495 620 -1060 675 -1675 14 -160 8 -530 -11 -630 -2 -11 -7 -46 -11
-79 -41 -341 -191 -771 -388 -1111 -80 -140 -237 -359 -337 -470 -73 -82 -267
-274 -330 -326 -36 -30 -67 -56 -70 -59 -8 -9 -152 -114 -200 -147 -163 -111
-527 -303 -572 -303 -8 0 -18 -4 -24 -9 -15 -15 -267 -97 -399 -129 -108 -27
-157 -37 -290 -58 -253 -40 -634 -40 -895 1 -173 27 -297 55 -464 106 -399
123 -787 339 -1111 619 -87 74 -304 300 -376 390 -278 347 -470 727 -587 1160
-22 79 -56 252 -67 333 -4 27 -8 57 -10 67 -26 135 -26 555 0 760 61 483 236
948 508 1350 188 277 388 487 710 747 94 75 344 225 503 303 209 102 510 205
684 236 14 3 32 7 40 9 8 2 31 7 50 10 19 3 46 7 60 10 90 17 127 21 255 31
50 4 91 8 93 9 6 5 406 -3 442 -9z"/>
<path d="M1825 4320 c-234 -35 -231 -378 3 -405 20 -2 80 -7 132 -10 177 -11
358 -60 521 -140 486 -240 786 -702 812 -1250 5 -96 20 -144 59 -185 76 -81
213 -84 291 -6 44 44 59 83 61 161 7 237 -63 541 -184 790 -179 370 -456 654
-824 845 -198 103 -477 182 -689 196 -51 3 -103 7 -117 8 -14 1 -43 -1 -65 -4z"/>
<path d="M5067 4324 c-1 -1 -33 -5 -72 -8 -92 -9 -144 -15 -175 -21 -14 -3
-34 -7 -45 -9 -173 -34 -386 -115 -558 -214 -149 -86 -316 -221 -435 -354
l-24 -26 49 -84 c56 -94 129 -242 139 -282 9 -38 24 -32 67 27 111 153 290
302 483 401 89 46 265 111 327 121 177 30 210 34 297 36 142 3 230 83 230 209
0 118 -82 195 -214 203 -36 2 -67 3 -69 1z"/>
</g>
</svg>
